<svg xmlns="http://www.w3.org/2000/svg" viewBox="0 0 396.26 789.03"><defs><style>.cls-1{fill:#6fe5ff;}.cls-2{fill:#7c4aff;}.cls-3{fill:#fff;}</style></defs><title>Artboard 14 copy 10</title><g id="Layer_1" data-name="Layer 1"><path class="cls-1" d="M100.8,367.3c-16.42-22.17-19.41-53.22-8.67-78.63s34.42-44.65,61.21-51.21c14.78-3.61,30.83-3.5,44.74,2.64,15.08,6.66,26.38,19.68,35.64,33.32,10.14,14.93,18.67,31.84,19,49.89.38,19.73-9.42,38.9-24.09,52.11s-33.77,20.81-53.26,23.93c-13.83,2.22-28.24,2.26-41.57-2S108.29,384.14,102,371.64"/><path class="cls-2" d="M180.44,337.8C164,315.63,161,284.59,171.77,259.17S206.19,214.53,233,208c14.78-3.62,30.83-3.51,44.74,2.64,15.08,6.65,26.38,19.68,35.64,33.31,10.14,14.94,18.67,31.85,19,49.9.38,19.73-9.42,38.9-24.09,52.1S274.51,366.74,255,369.86c-13.83,2.21-28.24,2.25-41.57-2s-25.52-13.2-31.86-25.69"/><path class="cls-3" d="M100.08,333.52q35.58,133.92,74.2,267c7,24.26,15.48,48.25,20.54,73a2.23,2.23,0,0,0,2.13,1.62l2-.06a2.29,2.29,0,0,0,2.14-1.62c16.87-51.42,31.56-103.51,46.17-155.61,7.39-26.31,14.75-52.62,21.78-79,6.68-25.12,12.66-50.42,19.36-75.53,2.72-10.21,5.7-20.35,8.55-30.52.77-2.74-3.5-3.91-4.27-1.17-9,32.08-16.92,64.41-25.41,96.63-13.77,52.23-28.44,104.25-43.48,156.13-8.53,29.45-17.41,58.79-27,87.92l2.13-1.62-2,.06,2.14,1.62c-4.41-21.61-11.63-42.47-17.81-63.61q-9.65-33-19-66Q143.23,476,125,409q-10.44-38.28-20.62-76.63c-.73-2.75-5-1.58-4.27,1.18Z"/><path class="cls-3" d="M176.41,607.59a60.38,60.38,0,0,0,31.91,35.81c2.57,1.18,4.82-2.63,2.24-3.82a56,56,0,0,1-29.89-33.17c-.9-2.69-5.17-1.54-4.26,1.18Z"/><path class="cls-3" d="M164.44,564.77a136.85,136.85,0,0,0,51.1,50.37c2.48,1.4,4.72-2.42,2.23-3.82a132.37,132.37,0,0,1-49.51-48.78c-1.43-2.46-5.26-.24-3.82,2.23Z"/><path class="cls-3" d="M126.21,346.65a399.66,399.66,0,0,0,52.12,83.91c19.93,24.5,43.33,46.75,70.86,62.5,2.48,1.42,4.71-2.4,2.24-3.82-27.22-15.57-50.27-37.59-70-61.81a395.21,395.21,0,0,1-51.43-83c-1.19-2.58-5-.33-3.82,2.24Z"/><path class="cls-3" d="M158.66,358.44c23.15,42.84,57.69,80.54,97.88,108,2.35,1.61,4.57-2.22,2.23-3.82-39.56-27-73.5-64.21-96.29-106.37-1.36-2.5-5.18-.27-3.82,2.23Z"/><path class="cls-3" d="M198,362.36a147.52,147.52,0,0,0,67.81,70.5c2.54,1.27,4.78-2.54,2.24-3.82a143.69,143.69,0,0,1-66.23-68.91c-1.18-2.59-5-.34-3.82,2.23Z"/><path class="cls-3" d="M230.61,358.71a137.27,137.27,0,0,0,44.63,47.46c2.39,1.56,4.61-2.27,2.23-3.82a132.47,132.47,0,0,1-43-45.88c-1.4-2.47-5.22-.25-3.82,2.24Z"/><path class="cls-3" d="M258.68,352.49A115.31,115.31,0,0,0,280,376.31c2.17,1.83,5.31-1.29,3.13-3.13a110.54,110.54,0,0,1-20.62-22.93c-1.58-2.35-5.41-.14-3.82,2.24Z"/><path class="cls-3" d="M110.34,371.85A339.06,339.06,0,0,0,243,524.48c2.43,1.5,4.66-2.32,2.24-3.82a337.21,337.21,0,0,1-131.09-151c-1.14-2.61-5-.36-3.82,2.23Z"/><path class="cls-3" d="M134,457.05a294.74,294.74,0,0,0,99,97.24c2.45,1.46,4.68-2.36,2.23-3.82a290,290,0,0,1-97.39-95.66c-1.5-2.41-5.33-.19-3.82,2.24Z"/><path class="cls-3" d="M149.27,515.4a160.37,160.37,0,0,0,74.89,72c2.56,1.19,4.81-2.62,2.23-3.82a156.5,156.5,0,0,1-73.3-70.37c-1.3-2.54-5.12-.3-3.82,2.23Z"/><path class="cls-3" d="M117.18,386.88c9.53-11.83,19.2-23.53,28.73-35.36,1.77-2.2-1.34-5.35-3.13-3.13-9.53,11.83-19.2,23.53-28.73,35.36-1.77,2.2,1.34,5.35,3.13,3.13Z"/><path class="cls-3" d="M123.92,410.12a174.48,174.48,0,0,0,44-50.65c1.43-2.48-2.39-4.71-3.82-2.24A171.24,171.24,0,0,1,120.79,407c-2.25,1.75.9,4.86,3.13,3.13Z"/><path class="cls-3" d="M128.52,437.17a259.68,259.68,0,0,0,72.06-77.07c1.48-2.44-2.34-4.66-3.82-2.23a254.46,254.46,0,0,1-70.47,75.48c-2.31,1.63-.1,5.47,2.23,3.82Z"/><path class="cls-3" d="M142.19,463.62A223.51,223.51,0,0,0,233.7,361.06c1.14-2.58-2.67-4.84-3.82-2.24A219.63,219.63,0,0,1,140,459.8c-2.46,1.44-.24,5.26,2.23,3.82Z"/><path class="cls-3" d="M147.2,495.62c55.11-37.81,104.73-89.28,129.06-152.45,1-2.66-3.25-3.81-4.26-1.18C248.11,404,199,454.7,145,491.8c-2.33,1.6-.12,5.44,2.23,3.82Z"/><path class="cls-3" d="M155.53,524.13A303,303,0,0,0,281.84,378c1.08-2.63-3.2-3.78-4.26-1.17A298.25,298.25,0,0,1,153.3,520.31c-2.45,1.44-.23,5.27,2.23,3.82Z"/><path class="cls-3" d="M163.7,549.5v.87a2.22,2.22,0,0,0,4.43,0v-.87a2.22,2.22,0,0,0-4.43,0Z"/><path class="cls-3" d="M166.32,551.67A277.24,277.24,0,0,0,263.54,449c1.36-2.5-2.46-4.74-3.82-2.23a272.76,272.76,0,0,1-95.63,101.1c-2.42,1.49-.2,5.32,2.23,3.82Z"/><path class="cls-3" d="M172.31,586.3a210.93,210.93,0,0,0,73.57-64.49c1.65-2.32-2.18-4.53-3.82-2.23a206.2,206.2,0,0,1-72,62.9c-2.52,1.33-.29,5.15,2.23,3.82Z"/><path class="cls-3" d="M181.84,614.93a128.08,128.08,0,0,0,50.21-43.52c1.6-2.36-2.23-4.58-3.82-2.23a123.77,123.77,0,0,1-48.62,41.93c-2.56,1.24-.32,5.06,2.23,3.82Z"/><path class="cls-3" d="M191.32,644.34a91.15,91.15,0,0,0,27.75-28.56c1.5-2.43-2.32-4.65-3.82-2.23a85.91,85.91,0,0,1-26.16,27c-2.37,1.56-.15,5.39,2.23,3.82Z"/><path class="cls-3" d="M100.08,333.52q35.58,133.92,74.2,267c7,24.26,15.48,48.25,20.54,73a2.23,2.23,0,0,0,2.13,1.62l2-.06a2.29,2.29,0,0,0,2.14-1.62c16.87-51.42,31.56-103.51,46.17-155.61,7.39-26.31,14.75-52.62,21.78-79,6.68-25.12,12.66-50.42,19.36-75.53,2.72-10.21,5.7-20.35,8.55-30.52.77-2.74-3.5-3.91-4.27-1.17-9,32.08-16.92,64.41-25.41,96.63-13.77,52.23-28.44,104.25-43.48,156.13-8.53,29.45-17.41,58.79-27,87.92l2.13-1.62-2,.06,2.14,1.62c-4.41-21.61-11.63-42.47-17.81-63.61q-9.65-33-19-66Q143.23,476,125,409q-10.44-38.28-20.62-76.63c-.73-2.75-5-1.58-4.27,1.18Z"/><path class="cls-3" d="M176.41,607.59a60.38,60.38,0,0,0,31.91,35.81c2.57,1.18,4.82-2.63,2.24-3.82a56,56,0,0,1-29.89-33.17c-.9-2.69-5.17-1.54-4.26,1.18Z"/><path class="cls-3" d="M164.44,564.77a136.85,136.85,0,0,0,51.1,50.37c2.48,1.4,4.72-2.42,2.23-3.82a132.37,132.37,0,0,1-49.51-48.78c-1.43-2.46-5.26-.24-3.82,2.23Z"/><path class="cls-3" d="M126.21,346.65a399.66,399.66,0,0,0,52.12,83.91c19.93,24.5,43.33,46.75,70.86,62.5,2.48,1.42,4.71-2.4,2.24-3.82-27.22-15.57-50.27-37.59-70-61.81a395.21,395.21,0,0,1-51.43-83c-1.19-2.58-5-.33-3.82,2.24Z"/><path class="cls-3" d="M158.66,358.44c23.15,42.84,57.69,80.54,97.88,108,2.35,1.61,4.57-2.22,2.23-3.82-39.56-27-73.5-64.21-96.29-106.37-1.36-2.5-5.18-.27-3.82,2.23Z"/><path class="cls-3" d="M198,362.36a147.52,147.52,0,0,0,67.81,70.5c2.54,1.27,4.78-2.54,2.24-3.82a143.69,143.69,0,0,1-66.23-68.91c-1.18-2.59-5-.34-3.82,2.23Z"/><path class="cls-3" d="M230.61,358.71a137.27,137.27,0,0,0,44.63,47.46c2.39,1.56,4.61-2.27,2.23-3.82a132.47,132.47,0,0,1-43-45.88c-1.4-2.47-5.22-.25-3.82,2.24Z"/><path class="cls-3" d="M258.68,352.49A115.31,115.31,0,0,0,280,376.31c2.17,1.83,5.31-1.29,3.13-3.13a110.54,110.54,0,0,1-20.62-22.93c-1.58-2.35-5.41-.14-3.82,2.24Z"/><path class="cls-3" d="M110.34,371.85A339.06,339.06,0,0,0,243,524.48c2.43,1.5,4.66-2.32,2.24-3.82a337.21,337.21,0,0,1-131.09-151c-1.14-2.61-5-.36-3.82,2.23Z"/><path class="cls-3" d="M134,457.05a294.74,294.74,0,0,0,99,97.24c2.45,1.46,4.68-2.36,2.23-3.82a290,290,0,0,1-97.39-95.66c-1.5-2.41-5.33-.19-3.82,2.24Z"/><path class="cls-3" d="M149.27,515.4a160.37,160.37,0,0,0,74.89,72c2.56,1.19,4.81-2.62,2.23-3.82a156.5,156.5,0,0,1-73.3-70.37c-1.3-2.54-5.12-.3-3.82,2.23Z"/><path class="cls-3" d="M117.18,386.88c9.53-11.83,19.2-23.53,28.73-35.36,1.77-2.2-1.34-5.35-3.13-3.13-9.53,11.83-19.2,23.53-28.73,35.36-1.77,2.2,1.34,5.35,3.13,3.13Z"/><path class="cls-3" d="M123.92,410.12a174.48,174.48,0,0,0,44-50.65c1.43-2.48-2.39-4.71-3.82-2.24A171.24,171.24,0,0,1,120.79,407c-2.25,1.75.9,4.86,3.13,3.13Z"/><path class="cls-3" d="M128.52,437.17a259.68,259.68,0,0,0,72.06-77.07c1.48-2.44-2.34-4.66-3.82-2.23a254.46,254.46,0,0,1-70.47,75.48c-2.31,1.63-.1,5.47,2.23,3.82Z"/><path class="cls-3" d="M142.19,463.62A223.51,223.51,0,0,0,233.7,361.06c1.14-2.58-2.67-4.84-3.82-2.24A219.63,219.63,0,0,1,140,459.8c-2.46,1.44-.24,5.26,2.23,3.82Z"/><path class="cls-3" d="M147.2,495.62c55.11-37.81,104.73-89.28,129.06-152.45,1-2.66-3.25-3.81-4.26-1.18C248.11,404,199,454.7,145,491.8c-2.33,1.6-.12,5.44,2.23,3.82Z"/><path class="cls-3" d="M155.53,524.13A303,303,0,0,0,281.84,378c1.08-2.63-3.2-3.78-4.26-1.17A298.25,298.25,0,0,1,153.3,520.31c-2.45,1.44-.23,5.27,2.23,3.82Z"/><path class="cls-3" d="M163.7,549.5v.87a2.22,2.22,0,0,0,4.43,0v-.87a2.22,2.22,0,0,0-4.43,0Z"/><path class="cls-3" d="M166.32,551.67A277.24,277.24,0,0,0,263.54,449c1.36-2.5-2.46-4.74-3.82-2.23a272.76,272.76,0,0,1-95.63,101.1c-2.42,1.49-.2,5.32,2.23,3.82Z"/><path class="cls-3" d="M172.31,586.3a210.93,210.93,0,0,0,73.57-64.49c1.65-2.32-2.18-4.53-3.82-2.23a206.2,206.2,0,0,1-72,62.9c-2.52,1.33-.29,5.15,2.23,3.82Z"/><path class="cls-3" d="M181.84,614.93a128.08,128.08,0,0,0,50.21-43.52c1.6-2.36-2.23-4.58-3.82-2.23a123.77,123.77,0,0,1-48.62,41.93c-2.56,1.24-.32,5.06,2.23,3.82Z"/><path class="cls-3" d="M191.32,644.34a91.15,91.15,0,0,0,27.75-28.56c1.5-2.43-2.32-4.65-3.82-2.23a85.91,85.91,0,0,1-26.16,27c-2.37,1.56-.15,5.39,2.23,3.82Z"/></g></svg>