<svg id="Layer_1" data-name="Layer 1" xmlns="http://www.w3.org/2000/svg" viewBox="0 0 120.16 65.46"><defs><style>.cls-1,.cls-2,.cls-3,.cls-4,.cls-5{fill:none;stroke:#fff;stroke-miterlimit:10;}.cls-1{stroke-width:2.2px;}.cls-2{stroke-width:0.5px;}.cls-3{stroke-width:0.48px;}.cls-4{stroke-width:2px;}.cls-5{stroke-dasharray:2.42;}</style></defs><title>6</title><polygon class="cls-1" points="1.26 64.19 92.46 64.36 92.97 22.42 1.1 22.39 1.26 64.19"/><line class="cls-2" x1="0.89" y1="43.55" x2="13.77" y2="63.01"/><line class="cls-2" x1="48.6" y1="23.64" x2="75.18" y2="65.05"/><line class="cls-2" x1="86.23" y1="22.55" x2="92.65" y2="32.82"/><line class="cls-2" x1="88.68" y1="23.15" x2="93.77" y2="31.71"/><line class="cls-2" x1="84.01" y1="22.26" x2="92.92" y2="36.84"/><line class="cls-2" x1="81.71" y1="22.04" x2="92.92" y2="40.05"/><line class="cls-2" x1="79.28" y1="21.58" x2="92.92" y2="43.91"/><line class="cls-2" x1="77.43" y1="22.1" x2="93.19" y2="47.92"/><line class="cls-2" x1="74.92" y1="21.85" x2="93.19" y2="51.13"/><line class="cls-2" x1="72.59" y1="21.75" x2="91.99" y2="52.68"/><line class="cls-2" x1="71.33" y1="22.88" x2="92.26" y2="56.69"/><line class="cls-2" x1="1" y1="61.53" x2="2.41" y2="63.4"/><line class="cls-2" x1="0.63" y1="57.23" x2="5.63" y2="64.33"/><line class="cls-2" x1="0.56" y1="53.78" x2="7.7" y2="64.33"/><line class="cls-2" x1="0.56" y1="49.98" x2="10.69" y2="65.33"/><line class="cls-2" x1="0.56" y1="46.6" x2="12.16" y2="63.77"/><line class="cls-2" x1="1.16" y1="40.43" x2="16.48" y2="63.91"/><line class="cls-2" x1="1.06" y1="36.83" x2="18.63" y2="64.07"/><line class="cls-2" x1="67.87" y1="21.6" x2="92.26" y2="59.9"/><line class="cls-2" x1="92.46" y1="64.36" x2="66.77" y2="23.24"/><line class="cls-2" x1="64.41" y1="22.8" x2="89.92" y2="64.04"/><line class="cls-2" x1="61.73" y1="22.27" x2="88.05" y2="64.48"/><line class="cls-2" x1="59.06" y1="21.94" x2="85.74" y2="64.11"/><line class="cls-2" x1="56.66" y1="21.68" x2="83.45" y2="64.26"/><line class="cls-2" x1="54.94" y1="22.48" x2="81.43" y2="64.46"/><line class="cls-2" x1="51.85" y1="21.38" x2="79.46" y2="64.64"/><line class="cls-2" x1="49.71" y1="21.65" x2="76.7" y2="63.93"/><line class="cls-2" x1="45.53" y1="22.43" x2="73" y2="64.67"/><line class="cls-2" x1="43.39" y1="22.11" x2="70.08" y2="63.81"/><line class="cls-2" x1="41.74" y1="22.82" x2="68.14" y2="64.06"/><line class="cls-2" x1="39.06" y1="22.28" x2="65.58" y2="63.88"/><line class="cls-3" x1="36.54" y1="22.11" x2="63.52" y2="64.71"/><line class="cls-2" x1="35.38" y1="23.62" x2="60.89" y2="63.95"/><line class="cls-2" x1="32.44" y1="22.59" x2="58.4" y2="63.83"/><line class="cls-2" x1="29.77" y1="22.05" x2="55.79" y2="63.15"/><line class="cls-2" x1="21.57" y1="23.64" x2="48.15" y2="65.05"/><line class="cls-2" x1="27.91" y1="22.48" x2="54.4" y2="64.46"/><line class="cls-2" x1="24.82" y1="21.38" x2="52.42" y2="64.64"/><line class="cls-2" x1="22.68" y1="21.65" x2="49.66" y2="63.93"/><line class="cls-2" x1="18.5" y1="22.43" x2="45.97" y2="64.67"/><line class="cls-2" x1="16.36" y1="22.11" x2="43.05" y2="63.81"/><line class="cls-2" x1="14.7" y1="22.82" x2="41.11" y2="64.06"/><line class="cls-2" x1="12.03" y1="22.28" x2="38.55" y2="63.88"/><line class="cls-3" x1="9.79" y1="22.11" x2="35.58" y2="63.15"/><line class="cls-2" x1="8.35" y1="23.62" x2="33.86" y2="63.95"/><line class="cls-2" x1="5.41" y1="22.59" x2="31.37" y2="63.83"/><line class="cls-2" x1="2.73" y1="22.05" x2="28.76" y2="63.15"/><line class="cls-2" x1="1.26" y1="22.7" x2="27.83" y2="64.72"/><line class="cls-2" x1="1.13" y1="25.83" x2="25.25" y2="64.05"/><line class="cls-2" x1="1.06" y1="29.57" x2="22.67" y2="63.58"/><line class="cls-2" x1="0.92" y1="32.66" x2="20.07" y2="63.43"/><polyline class="cls-4" points="1.26 22.42 35.24 1 117.49 1 92.97 22.42"/><polyline class="cls-4" points="118.56 0.29 118.49 37 93.08 64.75"/><polyline class="cls-5" points="1.26 64.19 35.55 37.8 35.24 1"/><line class="cls-5" x1="117.47" y1="37.01" x2="35.7" y2="38.01"/></svg>