<svg id="Layer_1" data-name="Layer 1" xmlns="http://www.w3.org/2000/svg" viewBox="0 0 58.98 101.82"><defs><style>.cls-1,.cls-2,.cls-3,.cls-4,.cls-5{fill:none;stroke:#fff;stroke-miterlimit:10;}.cls-1{stroke-width:2.2px;}.cls-2{stroke-width:0.5px;}.cls-3{stroke-width:0.48px;}.cls-4{stroke-width:2px;}.cls-5{stroke-dasharray:2.42;}</style></defs><title>7</title><polygon class="cls-1" points="57.71 100.72 1.1 100.64 1.1 52.58 57.71 52.44 57.71 100.72"/><line class="cls-2" x1="57.71" y1="52.43" x2="52.54" y2="65.03"/><line class="cls-2" x1="57.61" y1="70.73" x2="54.19" y2="78.71"/><line class="cls-2" x1="58.24" y1="73.13" x2="54.82" y2="81.12"/><line class="cls-2" x1="58.75" y1="75.41" x2="55.33" y2="83.4"/><line class="cls-2" x1="58.6" y1="63.46" x2="53.43" y2="76.05"/><line class="cls-2" x1="58.22" y1="55.73" x2="53.05" y2="68.32"/><line class="cls-2" x1="58.47" y1="59.28" x2="53.3" y2="71.87"/><line class="cls-2" x1="57.23" y1="47.67" x2="52.16" y2="61.61"/><line class="cls-2" x1="56.34" y1="44.12" x2="51.78" y2="57.17"/><line class="cls-2" x1="55.38" y1="41.14" x2="51.4" y2="52.74"/><line class="cls-2" x1="54.32" y1="39.11" x2="50.64" y2="49.19"/><line class="cls-3" x1="49.05" y1="7.87" x2="46.71" y2="13.85"/><line class="cls-2" x1="49" y1="13.43" x2="47.35" y2="17.65"/><line class="cls-2" x1="50.13" y1="16.13" x2="47.09" y2="23.86"/><line class="cls-2" x1="50.11" y1="21.55" x2="47.22" y2="29.43"/><line class="cls-2" x1="51.91" y1="22.08" x2="47.98" y2="32.85"/><line class="cls-2" x1="52.16" y1="27.32" x2="48.23" y2="38.17"/><line class="cls-2" x1="53.43" y1="29.81" x2="49.25" y2="40.7"/><line class="cls-2" x1="53.81" y1="34.12" x2="49.63" y2="46.78"/><polyline class="cls-4" points="1.1 52.58 13.46 1 46.73 1 57.71 52.44"/><polyline class="cls-5" points="13.46 1 13.46 27.07 1.1 100.64"/><polyline class="cls-5" points="46.73 1 46.73 26.04 13.46 26.04"/><line class="cls-5" x1="46.73" y1="26.04" x2="57.71" y2="100.72"/></svg>