<svg id="Layer_1" data-name="Layer 1" xmlns="http://www.w3.org/2000/svg" viewBox="0 0 94.3 63.09"><defs><style>.cls-1,.cls-2,.cls-3,.cls-4,.cls-5{fill:none;stroke:#fff;stroke-miterlimit:10;}.cls-1{stroke-width:2.2px;}.cls-2{stroke-width:0.5px;}.cls-3{stroke-width:0.48px;}.cls-4{stroke-dasharray:1.7;}.cls-5{stroke-width:2px;}</style></defs><title>8</title><polygon class="cls-1" points="1.48 61.8 92.67 61.97 93.19 20.02 1.32 19.99 1.48 61.8"/><line class="cls-2" x1="1.11" y1="41.15" x2="13.99" y2="60.62"/><line class="cls-2" x1="48.81" y1="21.25" x2="75.4" y2="62.66"/><line class="cls-2" x1="86.44" y1="20.15" x2="92.86" y2="30.43"/><line class="cls-2" x1="88.9" y1="20.75" x2="93.98" y2="29.31"/><line class="cls-2" x1="84.23" y1="19.86" x2="93.13" y2="34.44"/><line class="cls-2" x1="81.93" y1="19.65" x2="93.13" y2="37.65"/><line class="cls-2" x1="79.5" y1="19.18" x2="93.14" y2="41.51"/><line class="cls-2" x1="77.65" y1="19.71" x2="93.41" y2="45.53"/><line class="cls-2" x1="75.13" y1="19.46" x2="93.41" y2="48.74"/><line class="cls-2" x1="72.81" y1="19.36" x2="92.21" y2="50.29"/><line class="cls-2" x1="71.55" y1="20.48" x2="92.48" y2="54.3"/><line class="cls-2" x1="1.21" y1="59.14" x2="2.62" y2="61.01"/><line class="cls-2" x1="0.84" y1="54.84" x2="5.84" y2="61.93"/><line class="cls-2" x1="0.77" y1="51.39" x2="7.91" y2="61.93"/><line class="cls-2" x1="0.77" y1="47.58" x2="10.9" y2="62.93"/><line class="cls-2" x1="0.77" y1="44.21" x2="12.37" y2="61.38"/><line class="cls-2" x1="1.37" y1="38.03" x2="16.69" y2="61.52"/><line class="cls-2" x1="1.28" y1="34.44" x2="18.84" y2="61.68"/><line class="cls-2" x1="68.09" y1="19.21" x2="92.48" y2="57.51"/><line class="cls-2" x1="66.99" y1="20.85" x2="92.68" y2="61.97"/><line class="cls-2" x1="64.62" y1="20.41" x2="90.14" y2="61.65"/><line class="cls-2" x1="61.95" y1="19.87" x2="88.27" y2="62.09"/><line class="cls-2" x1="59.27" y1="19.55" x2="85.96" y2="61.72"/><line class="cls-2" x1="56.88" y1="19.29" x2="83.66" y2="61.87"/><line class="cls-2" x1="55.16" y1="20.09" x2="81.65" y2="62.07"/><line class="cls-2" x1="52.07" y1="18.99" x2="79.67" y2="62.24"/><line class="cls-2" x1="49.93" y1="19.26" x2="76.91" y2="61.53"/><line class="cls-2" x1="45.75" y1="20.04" x2="73.22" y2="62.27"/><line class="cls-2" x1="43.6" y1="19.72" x2="70.3" y2="61.41"/><line class="cls-2" x1="41.95" y1="20.43" x2="68.36" y2="61.67"/><line class="cls-2" x1="39.28" y1="19.89" x2="65.8" y2="61.48"/><line class="cls-3" x1="36.76" y1="19.71" x2="63.73" y2="62.32"/><line class="cls-2" x1="35.6" y1="21.23" x2="61.11" y2="61.55"/><line class="cls-2" x1="32.66" y1="20.19" x2="58.61" y2="61.44"/><line class="cls-2" x1="29.98" y1="19.66" x2="56.01" y2="60.76"/><line class="cls-2" x1="21.78" y1="21.25" x2="48.36" y2="62.66"/><line class="cls-2" x1="28.13" y1="20.09" x2="54.62" y2="62.07"/><line class="cls-2" x1="25.03" y1="18.99" x2="52.64" y2="62.24"/><line class="cls-2" x1="22.89" y1="19.26" x2="49.88" y2="61.53"/><line class="cls-2" x1="18.71" y1="20.04" x2="46.18" y2="62.27"/><line class="cls-2" x1="16.57" y1="19.72" x2="43.26" y2="61.41"/><line class="cls-2" x1="14.92" y1="20.43" x2="41.32" y2="61.67"/><line class="cls-2" x1="12.24" y1="19.89" x2="38.76" y2="61.48"/><line class="cls-3" x1="10" y1="19.71" x2="35.79" y2="60.76"/><line class="cls-2" x1="8.57" y1="21.23" x2="34.08" y2="61.55"/><line class="cls-2" x1="5.62" y1="20.19" x2="31.58" y2="61.44"/><line class="cls-2" x1="2.95" y1="19.66" x2="28.98" y2="60.76"/><line class="cls-2" x1="1.48" y1="20.3" x2="28.05" y2="62.32"/><line class="cls-2" x1="1.35" y1="23.44" x2="25.47" y2="61.65"/><line class="cls-2" x1="1.28" y1="27.18" x2="22.88" y2="61.18"/><line class="cls-2" x1="1.13" y1="30.27" x2="20.29" y2="61.03"/><polyline class="cls-4" points="1.48 61.8 19.12 25.4 18.96 1"/><polyline class="cls-5" points="0.7 19.27 19.12 1 78.72 1 93.19 20.02"/><polyline class="cls-4" points="19.09 23.81 78.14 23.81 78.14 1"/><line class="cls-4" x1="93.31" y1="62.91" x2="78.15" y2="23.81"/></svg>